<svg xmlns="http://www.w3.org/2000/svg" viewBox="0 0 64 64">
  <defs>
    <linearGradient id="g" x1="0" x2="1" y1="0" y2="1">
      <stop offset="0%" stop-color="#10B981"/>
      <stop offset="100%" stop-color="#065F46"/>
    </linearGradient>
  </defs>
  <rect width="64" height="64" rx="12" fill="url(#g)"/>
  <!-- Sofa icon -->
  <g fill="none" stroke="#ECFDF5" stroke-width="3" stroke-linecap="round" stroke-linejoin="round">
    <path d="M12 36v-6a6 6 0 0 1 6-6h28a6 6 0 0 1 6 6v6"/>
    <path d="M10 36h44v8a4 4 0 0 1-4 4H14a4 4 0 0 1-4-4v-8Z" fill="#064E3B"/>
    <path d="M18 28v8M46 28v8"/>
    <path d="M18 50v4M46 50v4"/>
  </g>
  <!-- M monogram -->
  <path d="M20 20 L24 20 L32 28 L40 20 L44 20 L44 26 L40 26 L32 34 L24 26 L20 26 Z" fill="#A7F3D0"/>
</svg>
